<svg width="48" height="48" viewBox="0 0 48 48" fill="none" xmlns="http://www.w3.org/2000/svg">
<path d="M0 24C0 37.248 10.752 48 24 48C37.248 48 48 37.248 48 24.096C48 10.656 37.248 0 23.808 0C10.752 0 0 10.752 0 24ZM24 45.792C12 45.792 2.304 36.096 2.208 24.096C2.112 12.096 11.904 2.304 24 2.208C35.904 2.208 45.792 12 45.792 24C45.696 36 36 45.696 24 45.792Z" fill="white"/>
<path d="M16.1281 22.656C16.3201 22.56 16.4161 22.464 16.6081 22.368C19.2001 19.776 21.6961 17.28 24.2881 14.688C24.3841 14.592 24.5761 14.4 24.6721 14.304C25.0561 13.824 24.9601 13.248 24.5761 12.864C24.1921 12.48 23.6161 12.48 23.1361 12.768C23.0401 12.864 22.8481 12.96 22.7521 13.152C19.4881 16.416 16.1281 19.776 12.8641 23.04C12.0961 23.808 12.0961 24.384 12.8641 25.056C16.1281 28.32 19.4881 31.68 22.7521 34.944C22.8481 35.04 23.0401 35.232 23.1361 35.328C23.6161 35.616 24.1921 35.52 24.5761 35.136C24.9601 34.752 24.9601 34.176 24.5761 33.696C24.4801 33.6 24.3841 33.504 24.1921 33.312C21.6001 30.72 19.1041 28.224 16.5121 25.632C16.4161 25.536 16.2241 25.44 16.0321 25.344C16.0321 25.248 16.1281 25.248 16.1281 25.152C16.3201 25.152 16.5121 25.152 16.7041 25.152C23.8081 25.152 30.9121 25.152 37.9201 25.152C38.1121 25.152 38.3041 25.152 38.4961 25.152C39.0721 25.152 39.5521 24.672 39.5521 24.096C39.5521 23.52 39.1681 23.04 38.5921 23.04C38.4001 23.04 38.2081 23.04 38.1121 23.04C31.0081 23.04 23.9041 23.04 16.8001 23.04C16.6081 23.04 16.4161 23.04 16.2241 23.04C16.2241 22.848 16.2241 22.752 16.1281 22.656Z" fill="white"/>
</svg>
