<svg width="48" height="48" viewBox="0 0 48 48" fill="none" xmlns="http://www.w3.org/2000/svg">
<path d="M48 24C48 37.248 37.248 48 24 48C10.752 48 1.07288e-06 37.248 1.07288e-06 24.096C1.07288e-06 10.656 10.752 0 24.192 0C37.248 0 48 10.752 48 24ZM24 45.792C36 45.792 45.696 36.096 45.792 24.096C45.888 12.096 36.096 2.304 24 2.208C12.096 2.208 2.208 12 2.208 24C2.304 36 12 45.696 24 45.792Z" fill="white"/>
<path d="M31.8719 22.656C31.6799 22.56 31.5839 22.464 31.3919 22.368C28.7999 19.776 26.3039 17.28 23.7119 14.688C23.6159 14.592 23.4239 14.4 23.3279 14.304C22.9439 13.824 23.0399 13.248 23.4239 12.864C23.8079 12.48 24.3839 12.48 24.8639 12.768C24.9599 12.864 25.1519 12.96 25.2479 13.152C28.5119 16.416 31.8719 19.776 35.1359 23.04C35.9039 23.808 35.9039 24.384 35.1359 25.056C31.8719 28.32 28.5119 31.68 25.2479 34.944C25.1519 35.04 24.9599 35.232 24.8639 35.328C24.3839 35.616 23.8079 35.52 23.4239 35.136C23.0399 34.752 23.0399 34.176 23.4239 33.696C23.5199 33.6 23.6159 33.504 23.8079 33.312C26.3999 30.72 28.8959 28.224 31.4879 25.632C31.5839 25.536 31.7759 25.44 31.9679 25.344C31.9679 25.248 31.8719 25.248 31.8719 25.152C31.6799 25.152 31.4879 25.152 31.2959 25.152C24.1919 25.152 17.0879 25.152 10.0799 25.152C9.88792 25.152 9.69592 25.152 9.50392 25.152C8.92792 25.152 8.44791 24.672 8.44791 24.096C8.44791 23.52 8.83191 23.04 9.40791 23.04C9.59991 23.04 9.79191 23.04 9.88791 23.04C16.9919 23.04 24.0959 23.04 31.1999 23.04C31.3919 23.04 31.5839 23.04 31.7759 23.04C31.7759 22.848 31.7759 22.752 31.8719 22.656Z" fill="white"/>
</svg>
